HIERARCHY
ROOT Hips
{
	OFFSET -3.958830 18.904000 13.208200
	CHANNELS 6 Xposition Yposition Zposition Zrotation Yrotation Xrotation 
	JOINT LHipJoint
	{
		OFFSET 0.000000 0.000000 0.000000
		CHANNELS 3 Zrotation Yrotation Xrotation
		JOINT LeftUpLeg
		{
			OFFSET 1.800000 -1.400000 0.085000
			CHANNELS 3 Zrotation Yrotation Xrotation
			JOINT LeftLeg
			{
				OFFSET 2.215000 -6.000000 0.000000
				CHANNELS 3 Zrotation Yrotation Xrotation
				JOINT LeftFoot
				{
					OFFSET 2.500000 -6.900000 0.000000
					CHANNELS 3 Zrotation Yrotation Xrotation
					JOINT LeftToeBase
					{
						OFFSET 0.200000 -0.500000 1.950000
						CHANNELS 3 Zrotation Yrotation Xrotation
						End Site
						{
							OFFSET 0.000000 0.000000 0.000000
						}
					}
				}
			}
		}
	}
	JOINT RHipJoint
	{
		OFFSET 0.000000 0.000000 0.000000
		CHANNELS 3 Zrotation Yrotation Xrotation
		JOINT RightUpLeg
		{
			OFFSET -1.800000 -1.400000 0.085000
			CHANNELS 3 Zrotation Yrotation Xrotation
			JOINT RightLeg
			{
				OFFSET -2.215000 -6.000000 0.000000
				CHANNELS 3 Zrotation Yrotation Xrotation
				JOINT RightFoot
				{
					OFFSET -2.500000 -6.900000 0.000000
					CHANNELS 3 Zrotation Yrotation Xrotation
					JOINT RightToeBase
					{
						OFFSET -0.200000 -0.500000 1.950000
						CHANNELS 3 Zrotation Yrotation Xrotation
						End Site
						{
							OFFSET 0.000000 0.000000 0.000000
						}
					}
				}
			}
		}
	}
	JOINT LowerBack
	{
		OFFSET 0.000000 0.000000 0.000000
		CHANNELS 3 Zrotation Yrotation Xrotation
		JOINT Spine
		{
			OFFSET -0.087000 1.940000 -0.288900
			CHANNELS 3 Zrotation Yrotation Xrotation
			JOINT Spine1
			{
				OFFSET 0.000000 1.950000 0.060000
				CHANNELS 3 Zrotation Yrotation Xrotation
				JOINT Neck
				{
					OFFSET 0.000000 0.000000 0.000000
					CHANNELS 3 Zrotation Yrotation Xrotation
					JOINT Neck1
					{
						OFFSET 0.000000 1.600000 0.340000
						CHANNELS 3 Zrotation Yrotation Xrotation
						JOINT Head
						{
							OFFSET 0.000000 1.667000 -0.240000
							CHANNELS 3 Zrotation Yrotation Xrotation
							End Site
							{
								OFFSET 0.000000 0.000000 0.000000
							}
						}
					}
				}
				JOINT LeftShoulder
				{
					OFFSET 0.000000 0.000000 0.000000
					CHANNELS 3 Zrotation Yrotation Xrotation
					JOINT LeftArm
					{
						OFFSET 2.700000 1.550000 -0.730000
						CHANNELS 3 Zrotation Yrotation Xrotation
						JOINT LeftForeArm
						{
							OFFSET 5.450000 0.000000 0.000000
							CHANNELS 3 Zrotation Yrotation Xrotation
							JOINT LeftHand
							{
								OFFSET 3.450000 0.000000 0.000000
								CHANNELS 3 Zrotation Yrotation Xrotation
								JOINT LeftHandIndex1
								{
									OFFSET 0.750000 0.000000 0.000000
									CHANNELS 3 Zrotation Yrotation Xrotation
									End Site
									{
										OFFSET 0.000000 0.000000 0.000000
									}
								}
							}
						}
					}
				}
				JOINT RightShoulder
				{
					OFFSET 0.000000 0.000000 0.000000
					CHANNELS 3 Zrotation Yrotation Xrotation
					JOINT RightArm
					{
						OFFSET -2.700000 1.550000 -0.730000
						CHANNELS 3 Zrotation Yrotation Xrotation
						JOINT RightForeArm
						{
							OFFSET -5.450000 0.000000 0.000000
							CHANNELS 3 Zrotation Yrotation Xrotation
							JOINT RightHand
							{
								OFFSET -3.450000 0.000000 0.000000
								CHANNELS 3 Zrotation Yrotation Xrotation
								JOINT RightHandIndex1
								{
									OFFSET -0.750000 0.000000 0.000000
									CHANNELS 3 Zrotation Yrotation Xrotation
									End Site
									{
										OFFSET 0.000000 0.000000 0.000000
									}
								}
							}
						}
					}
				}
			}
		}
	}
}
MOTION
Frames: 4
Frame Time: 0.016667
0.121660 16.209350 -4.136600 -7.071298 -8.244095 18.724147 -15.541506 13.068670 2.712737 2.547835 -0.241629 8.606501 -6.200668 5.617179 2.583342 -0.436538 5.531070 3.033072 0.957850 0.541240 0.622940 18.453307 -7.367195 4.828631 17.664727 11.479405 -57.552196 0.722534 -2.395683 15.573029 0.078201 -0.989770 4.176911 0.487850 0.374800 0.269620 -3.415888 -5.750591 -7.658156 16.175217 -17.471180 13.477115 -1.521950 -15.490394 3.997785 -1.847917 -9.749995 -10.442968 -20.003960 15.596333 13.133123 -3.376630 8.910430 -15.965480 -13.045850 -8.964677 3.584244 -35.141580 -11.467286 -3.659471 -10.761719 -45.170734 1.165739 -3.588787 3.239866 0.636880 0.278530 -0.130540 0.435140 18.339014 8.813549 6.241026 34.300522 -7.831558 -10.773413 33.360614 45.993158 9.000375 1.434223 -1.995706 -0.288240 0.373400 -0.241550 -0.339860 
0.117240 16.172080 -4.123270 -7.888476 -10.251687 18.623331 -15.560330 13.106745 2.725595 2.139306 0.030110 8.834723 -6.223433 5.733262 3.266920 -0.350306 5.476258 3.023353 0.952210 0.520920 0.644500 18.431601 -7.261875 5.010771 19.152530 12.461186 -56.786051 -0.027686 -2.235026 16.296709 0.044722 -0.946888 4.173407 0.423930 0.286420 0.287120 -3.358532 -5.892997 -7.831068 15.572717 -17.025331 15.548207 -0.781135 -14.867742 3.287676 -1.323355 -9.915952 -10.982498 -20.495705 15.753938 13.841778 -3.812750 9.610620 -17.037260 -13.618189 -9.793392 4.081502 -35.338118 -10.364690 -3.993432 -11.090229 -42.035694 1.029911 -3.511425 3.267369 0.671390 0.207130 -0.070500 0.413960 17.980193 10.064690 6.610285 34.915852 -7.339298 -11.449428 30.471304 46.035919 8.082911 1.507944 -1.960367 -0.235840 0.294610 -0.263270 -0.342460 
0.100340 16.130450 -4.096420 -8.888625 -14.947903 18.598503 -15.632392 13.135341 2.768861 0.439607 0.740230 8.904616 -6.578061 5.930538 4.482245 -0.258244 5.386289 3.016666 0.946880 0.506850 0.667400 18.372998 -7.010894 5.369197 22.071490 14.297282 -54.971016 -1.865030 -1.779017 17.399568 -0.003998 -0.908965 4.183506 0.353880 0.183210 0.297080 -3.185754 -6.186101 -8.145690 13.325244 -15.567129 18.959976 0.528716 -13.269421 1.669253 -0.560407 -10.147702 -11.259706 -21.188602 16.259248 14.793291 -4.606630 10.754160 -19.047890 -14.832202 -9.398902 4.226661 -35.979955 -8.228471 -4.326327 -12.002544 -38.145453 1.037389 -3.435914 3.264813 0.727810 0.120820 0.006540 0.392190 17.897451 10.671087 6.822655 34.839514 -7.283950 -11.929460 29.388310 46.797459 8.099861 1.584303 -1.922480 -0.184290 0.222640 -0.288090 -0.349000 
0.077880 16.119930 -4.061790 -10.993600 -20.896046 18.418936 -15.735283 13.197246 2.764864 -1.216906 1.350827 8.170867 -6.931103 6.284989 6.993195 -0.143903 5.284767 3.025707 0.891970 0.443820 0.663210 18.288531 -6.701551 5.809586 26.346249 16.250408 -50.575326 -4.042896 -1.191594 17.934094 -0.056500 -0.887394 4.225976 0.237040 0.086790 0.285500 -2.926229 -6.560317 -8.539238 10.866788 -13.490872 23.873635 1.984047 -10.859215 -0.650185 0.735133 -10.381180 -11.603647 -22.094980 16.779394 16.998387 -6.058680 12.242630 -21.563090 -16.504580 -8.780385 4.281976 -36.776215 -5.525677 -4.790349 -12.199861 -33.163394 0.728715 -3.362593 3.198859 0.796770 0.024510 0.087150 0.364740 17.243541 11.532157 7.165745 35.646468 -6.836170 -12.613109 26.994234 46.610508 7.505888 1.692771 -1.803263 -0.143790 0.171510 -0.299120 -0.351800 
